# xmcd
#
# Track frame offsets:
#	150
#	8468
#	23615
#	42464
#	54893
#	68228
#	82946
#	96428
#	110888
#	124733
#	136664
#	154643
#	169286
#	182870
#	197246
#	207644
#	223343
#	238412
#	254171
#	264698
#	272654
#	288281
#	297326
#	305288
#
# Disc length: 4124 seconds
# Revision: 0
# Processed by: cddbd v1.5.2PL0 Copyright (c) Steve Scherf et al.
# Submitted via: dBpowerAMP V12.0
#
DISCID=72101a18
DTITLE=Johnny Cash - På Österåker [35th Anniversary Edition]
DYEAR=1973
DGENRE=Country
TTITLE0=I Walk the Line (instrumental)
TTITLE1=A Boy Named Sue
TTITLE2=Sunday Morning Coming Down
TTITLE3=Österåker (San Quentin)
TTITLE4=Me and Bobby McGee
TTITLE5=Orleans Parish Prison
TTITLE6=Jacob Green
TTITLE7=Life of a Prisoner
TTITLE8=The Prisoners Song
TTITLE9=Folsom Prison Blues
TTITLE10=City Jail
TTITLE11=Help Me Make it Through the Night
TTITLE12=That Silver Haired Daddy of Mine
TTITLE13=The Invertebraes (Poem)
TTITLE14=Lookin' Back in Anger
TTITLE15=I Saw a Man
TTITLE16=High Heel Sneakers
TTITLE17=Blue Suede Shoes
TTITLE18=Dirty Old Egg Suckin' Dog
TTITLE19=Wreck of the Old 97
TTITLE20=I Promise You
TTITLE21=Nobody Cared
TTITLE22=San Quentin
TTITLE23=Folsom Prison Blues (instrumental)
EXTD=
EXTT0=
EXTT1=
EXTT2=
EXTT3=
EXTT4=
EXTT5=
EXTT6=
EXTT7=
EXTT8=
EXTT9=
EXTT10=
EXTT11=
EXTT12=
EXTT13=
EXTT14=
EXTT15=
EXTT16=
EXTT17=
EXTT18=
EXTT19=
EXTT20=
EXTT21=
EXTT22=
EXTT23=
PLAYORDER=
